<svg xmlns="http://www.w3.org/2000/svg" viewBox="0 0 50 35"><path fill="#E6E6E6" d="M6.25 27.44c-3.18-1.09-5.1-3.33-5.1-6 0-3.25 2.63-5.99 5.74-5.99h.2l.11-.17c-.11-.42-.16-.78-.16-1.13 0-2.53 2.06-4.59 4.59-4.59.39 0 .79.06 1.26.2l.15.04.03-.16c.57-2.61 2.93-4.5 5.6-4.5 3.12 0 5.64 2.45 5.72 5.58l.28.49.07.11.12-.05c.63-.27 1.3-.4 1.98-.4 2.8 0 5.09 2.28 5.09 5.09l-.01.26.22-.05c.87-.48 1.79-.72 2.72-.72 3.17 0 5.74 2.56 5.74 5.7 0 3.29-2.76 6.29-5.79 6.29H6.25z"/><path fill="#595959" d="M18.67 5.3c3.04 0 5.49 2.39 5.57 5.44v.08l.04.07.26.41.14.22.24-.1c.61-.26 1.26-.39 1.92-.39 2.72 0 4.94 2.21 4.93 4.93l-.01.05v.02l-.02.52.46-.25c.85-.46 1.74-.7 2.65-.7 3.08 0 5.59 2.49 5.59 5.55 0 3.21-2.69 6.14-5.64 6.14H6.3c-3.13-1.08-5-3.26-5-5.85 0-3.16 2.55-5.84 5.62-5.83h.01c.04.01.08.01.11.01l.4.01-.1-.38c-.1-.41-.15-.75-.15-1.09 0-2.45 1.99-4.44 4.44-4.44.37 0 .76.06 1.21.19l.31.09.07-.31c.56-2.55 2.85-4.39 5.45-4.39m0-.3c-2.81 0-5.16 1.98-5.74 4.62-.41-.12-.84-.2-1.3-.2-2.62 0-4.74 2.12-4.74 4.74 0 .4.07.79.16 1.17-.05 0-.11-.02-.16-.02-3.25 0-5.89 2.88-5.89 6.14 0 3.03 2.3 5.15 5.25 6.15h28.56c3.25 0 5.94-3.18 5.94-6.44s-2.64-5.85-5.89-5.85c-1.02 0-1.96.28-2.79.73 0-.03.01-.05.01-.08a5.23 5.23 0 0 0-5.24-5.23c-.73 0-1.41.15-2.04.41l-.26-.41C24.45 7.55 21.87 5 18.67 5"/><path fill="#FFF" d="m19.72 21.39-1.77 2.79c-.11.17-.35.17-.45.01l-1.78-2.79c-.18-.27-.55-.36-.82-.17l-1.35.85c-.27.18-.36.53-.17.82l1.56 2.45c.11.18-.02.42-.23.42h-2.82c-.33.01-.6.27-.59.6v1.6c0 .32.27.6.6.59l2.82-.01c.21 0 .35.24.23.42l-1.54 2.44c-.17.28-.1.65.17.82l1.35.85c.28.17.65.09.83-.19l1.77-2.79c.11-.17.35-.17.45-.01l1.78 2.77c.18.27.55.36.82.17l1.32-.85c.27-.18.36-.53.17-.82l-1.56-2.45c-.11-.18.02-.42.23-.42l2.82-.01c.33-.01.6-.27.59-.6v-1.57a.593.593 0 0 0-.6-.59l-2.82.01c-.21 0-.35-.24-.23-.42l1.54-2.44a.59.59 0 0 0-.19-.82l-1.35-.84a.552.552 0 0 0-.78.18"/><path fill="#595959" d="M15.25 33.34c-.14 0-.28-.04-.4-.11l-1.35-.86a.699.699 0 0 1-.33-.48c-.04-.2-.01-.4.1-.57l1.54-2.45c.03-.04.02-.08.01-.1-.01-.01-.03-.05-.09-.05l-2.82.01c-.19-.01-.4-.08-.55-.22s-.23-.34-.23-.54v-1.6c0-.2.07-.39.22-.54.14-.14.34-.23.54-.23h2.83c.05 0 .07-.03.08-.05.01-.01.03-.05 0-.1L13.23 23a.769.769 0 0 1 .22-1.06l1.35-.86c.34-.23.82-.13 1.06.22l1.78 2.79c.02.04.06.04.08.04.02 0 .06-.01.08-.05l1.77-2.79c.1-.17.26-.29.45-.34.2-.05.42-.01.59.11l1.34.84c.36.23.47.71.24 1.06l-1.54 2.44c-.03.04-.02.08-.01.1.01.01.03.05.09.05l2.82-.01h.02c.4 0 .74.34.75.76v1.57c.01.2-.07.38-.21.53-.14.15-.34.24-.55.24l-2.83.01c-.05 0-.07.03-.08.05-.01.01-.03.06 0 .1l1.56 2.45c.23.37.13.82-.22 1.06l-1.33.86c-.16.11-.36.15-.56.11a.786.786 0 0 1-.5-.33l-1.78-2.77c-.02-.04-.06-.04-.08-.04-.02 0-.06.01-.08.05l-1.77 2.79a.73.73 0 0 1-.64.36m-.52-4.97c.17 0 .31.09.39.24.08.15.07.31-.02.45l-1.54 2.44c-.06.09-.08.21-.05.32.02.11.08.2.17.25l1.35.86c.2.12.46.06.59-.13l1.77-2.79a.44.44 0 0 1 .38-.21c.15 0 .29.08.37.21l1.78 2.76c.06.09.16.16.28.18.1.02.21 0 .3-.06l1.33-.86c.2-.13.25-.38.12-.58L20.37 29a.447.447 0 0 1-.01-.46c.08-.14.22-.23.38-.23l2.82-.01c.11 0 .22-.05.3-.14.08-.08.11-.18.11-.28v-1.57c0-.11-.05-.22-.13-.3a.395.395 0 0 0-.28-.12h-.01l-2.83.01c-.17 0-.32-.09-.39-.24a.43.43 0 0 1 .02-.45l1.54-2.44a.42.42 0 0 0-.13-.58l-1.35-.84c-.09-.06-.21-.09-.32-.06-.1.02-.18.08-.23.17l-.01.01-1.77 2.79a.44.44 0 0 1-.38.21c-.15 0-.29-.08-.37-.21l-1.78-2.79a.42.42 0 0 0-.58-.12l-1.35.86c-.19.13-.25.38-.12.58l1.56 2.45c.09.14.09.31.01.46-.08.14-.22.23-.38.23h-2.82c-.23.01-.42.19-.41.42v1.61c0 .11.04.22.12.29.08.08.19.13.3.12h2.85z"/></svg>