<svg xmlns="http://www.w3.org/2000/svg" viewBox="0 0 50 35"><path fill="#E6E6E6" d="M6.25 27.44c-3.18-1.09-5.1-3.33-5.1-6 0-3.25 2.63-5.99 5.74-5.99h.2l.11-.17c-.11-.42-.16-.78-.16-1.13 0-2.53 2.06-4.59 4.59-4.59.39 0 .79.06 1.26.2l.15.04.03-.16c.57-2.61 2.93-4.5 5.6-4.5 3.12 0 5.64 2.45 5.72 5.58l.28.49.07.11.12-.05c.63-.27 1.3-.4 1.98-.4 2.8 0 5.09 2.28 5.09 5.09l-.01.26.22-.05c.87-.48 1.79-.72 2.72-.72 3.17 0 5.74 2.56 5.74 5.7 0 3.29-2.76 6.29-5.79 6.29H6.25z"/><path fill="#595959" d="M18.67 5.3c3.04 0 5.49 2.39 5.57 5.44v.08l.04.07.26.41.14.22.24-.1c.61-.26 1.26-.39 1.92-.39 2.72 0 4.94 2.21 4.93 4.93l-.01.05v.02l-.02.52.46-.25c.85-.46 1.74-.7 2.65-.7 3.08 0 5.59 2.49 5.59 5.55 0 3.21-2.69 6.14-5.64 6.14H6.3c-3.13-1.08-5-3.26-5-5.85 0-3.16 2.55-5.84 5.62-5.83h.01c.04.01.08.01.11.01l.4.01-.1-.38c-.1-.41-.15-.75-.15-1.09 0-2.45 1.99-4.44 4.44-4.44.37 0 .76.06 1.21.19l.31.09.07-.31c.56-2.55 2.85-4.39 5.45-4.39m0-.3c-2.81 0-5.16 1.98-5.74 4.62-.41-.12-.84-.2-1.3-.2-2.62 0-4.74 2.12-4.74 4.74 0 .4.07.79.16 1.17-.05 0-.11-.02-.16-.02-3.25 0-5.89 2.88-5.89 6.14 0 3.03 2.3 5.15 5.25 6.15h28.56c3.25 0 5.94-3.18 5.94-6.44s-2.64-5.85-5.89-5.85c-1.02 0-1.96.28-2.79.73 0-.03.01-.05.01-.08a5.23 5.23 0 0 0-5.24-5.23c-.73 0-1.41.15-2.04.41l-.26-.41C24.45 7.55 21.87 5 18.67 5"/><path fill="#9CF" d="M24.05 32.82c-.19 0-.39-.01-.59-.03-1.48-.13-2.76-1.37-3.12-3.01-.37-1.69.34-3.24 1.91-4.13 2.88-1.37 4.09-4.18 4.6-6.29.07-.28.3-.38.47-.38.18 0 .41.1.46.39.61 3.49 1.29 7.98 1.06 9.51-.44 2.9-2.77 3.94-4.79 3.94"/><path fill="#595959" d="M27.32 19.11c.14 0 .29.07.33.28.86 4.92 1.24 8.28 1.06 9.46-.43 2.82-2.69 3.82-4.67 3.82-.19 0-.38-.01-.58-.03-1.42-.13-2.65-1.32-3-2.91-.36-1.63.33-3.12 1.83-3.98 2.32-1.11 3.94-3.31 4.69-6.38.05-.19.21-.26.34-.26m0-.27a.61.61 0 0 0-.6.48c-.55 2.27-1.79 4.89-4.54 6.2-3.71 2.13-1.91 7.11 1.26 7.4.2.02.4.03.6.03 2.4 0 4.51-1.32 4.93-4.05.24-1.56-.46-6.11-1.06-9.55a.58.58 0 0 0-.59-.51"/><path fill="#FFF" d="m15.17 21.09-1.76 2.79c-.11.17-.35.17-.45.01l-1.78-2.78a.595.595 0 0 0-.82-.17L9 21.79c-.27.18-.35.53-.17.82l1.57 2.44c.11.18-.02.42-.23.42l-2.82.01a.6.6 0 0 0-.59.6l.01 1.6c0 .32.27.59.6.59l2.82-.02c.21 0 .35.24.23.42l-1.53 2.45c-.17.28-.1.65.18.82l1.35.85c.28.17.65.09.83-.19L13 29.8c.11-.17.35-.17.45-.01l1.78 2.76c.18.27.55.35.82.17l1.32-.86c.27-.18.35-.53.17-.82l-1.57-2.45c-.11-.18.02-.42.23-.42l2.82-.02c.32-.01.59-.27.59-.6V26a.593.593 0 0 0-.6-.59l-2.82.02c-.21 0-.35-.24-.23-.42l1.53-2.45a.59.59 0 0 0-.19-.82l-1.35-.84a.55.55 0 0 0-.78.19"/><path fill="#595959" d="M10.72 33.05c-.14 0-.28-.03-.4-.11l-1.35-.85c-.35-.21-.46-.68-.23-1.05l1.54-2.45c.03-.04.01-.08.01-.1-.01-.01-.03-.05-.09-.05l-2.82.02c-.21.02-.4-.07-.55-.22a.741.741 0 0 1-.23-.54l-.01-1.6c-.01-.19.07-.38.21-.53.14-.15.34-.24.55-.24l2.83-.01c.05 0 .07-.03.08-.05.01-.01.03-.06 0-.1l-1.57-2.45a.77.77 0 0 1 .22-1.06l1.35-.86c.34-.23.82-.14 1.06.22l1.79 2.79c.02.04.06.04.08.04.02 0 .06-.01.08-.05l1.75-2.8c.1-.17.26-.29.45-.34.2-.05.42-.01.59.1l1.35.84c.36.23.47.7.24 1.06l-1.53 2.45c-.03.04-.01.08 0 .1.01.01.03.05.09.05l2.82-.02c.41-.01.76.33.78.76l.01 1.57c.01.19-.07.38-.21.53-.14.15-.34.24-.55.24l-2.83.02c-.05 0-.07.03-.08.05-.01.01-.03.06 0 .1l1.57 2.45c.23.36.13.82-.22 1.06l-1.32.86c-.17.11-.37.15-.58.11a.791.791 0 0 1-.49-.33l-1.79-2.76c-.02-.04-.06-.04-.08-.04-.02 0-.06.01-.08.05l-1.76 2.8c-.16.21-.42.34-.68.34m-.53-4.97c.17 0 .31.09.39.24.08.15.07.31-.02.45l-1.53 2.45c-.12.2-.07.46.12.57l1.35.85c.2.12.46.06.59-.14l1.76-2.79a.44.44 0 0 1 .38-.21c.15 0 .29.08.37.2l1.78 2.76a.424.424 0 0 0 .58.12l1.32-.86c.19-.13.25-.38.12-.58l-1.57-2.44a.447.447 0 0 1-.01-.46c.08-.14.22-.23.38-.23l2.82-.02c.11 0 .22-.05.3-.14.08-.08.11-.18.11-.28l.01-1.57a.418.418 0 0 0-.41-.41h-.01l-2.83.02c-.17 0-.32-.09-.39-.24a.43.43 0 0 1 .02-.45l1.53-2.45c.12-.19.07-.45-.14-.57l-1.35-.84a.408.408 0 0 0-.32-.06c-.1.02-.18.09-.23.17l-.01.01-1.76 2.79a.44.44 0 0 1-.38.21c-.15 0-.29-.08-.37-.21l-1.78-2.78a.42.42 0 0 0-.58-.12l-1.33.87c-.19.13-.24.38-.12.58l1.57 2.44c.09.14.09.31.01.46-.08.14-.22.23-.38.23h-.01l-2.82.01a.43.43 0 0 0-.41.42l.01 1.61c0 .11.04.22.12.29a.4.4 0 0 0 .29.12h.01l2.82-.02z"/></svg>