<svg xmlns="http://www.w3.org/2000/svg" viewBox="0 0 50 35"><path fill="#FFEB00" d="M25.45 33.85c-.67 0-1.22-.55-1.22-1.22v-5.6l-.13-.02a9.97 9.97 0 0 1-2.24-.58l-.12-.05-2.79 4.83c-.22.38-.62.61-1.06.61-.21 0-.42-.06-.61-.16a1.23 1.23 0 0 1-.46-1.67l2.77-4.81-.09-.08c-.65-.49-1.22-1.04-1.7-1.62l-.08-.1-4.75 2.74a1.23 1.23 0 0 1-1.23-2.13l4.69-2.71-.05-.12c-.26-.6-.47-1.23-.61-1.87l-.03-.12H9.87a1.225 1.225 0 0 1 0-2.45h5.7l.01-.14c.05-.81.18-1.58.4-2.3l.03-.11-4.73-2.73c-.58-.34-.78-1.08-.45-1.67.22-.39.63-.62 1.06-.62.21 0 .42.06.61.16l4.54 2.62.08-.12c.58-.91 1.3-1.71 2.13-2.38l.1-.08-2.52-4.36c-.34-.58-.14-1.33.45-1.67a1.218 1.218 0 0 1 1.68.44l2.49 4.32.12-.05c.78-.34 1.64-.57 2.53-.69l.13-.02V2.37a1.225 1.225 0 0 1 2.45 0v4.97l.13.02c.9.12 1.76.35 2.54.69l.12.05 2.49-4.31c.22-.38.62-.61 1.06-.61.21 0 .42.06.61.16.29.17.49.43.58.75.08.31.04.64-.12.93l-2.51 4.34.1.08c.67.53 1.27 1.16 1.79 1.87l.08.11 4.4-2.54c.18-.11.4-.16.61-.16.44 0 .84.23 1.06.61.34.59.14 1.34-.44 1.68l-4.45 2.57.04.12c.35.93.56 1.9.62 2.91l.01.14h4.74a1.225 1.225 0 0 1 0 2.45h-4.92l-.03.12c-.18.84-.48 1.67-.88 2.44l-.07.13 4.49 2.59c.58.34.78 1.08.45 1.67-.22.39-.63.62-1.06.62-.21 0-.42-.06-.61-.16l-4.69-2.71-.08.09c-.39.42-.83.81-1.3 1.16l-.11.08 2.76 4.78c.16.28.21.61.12.93a1.247 1.247 0 0 1-1.19.91c-.44 0-.84-.23-1.06-.61l-2.78-4.82-.12.05c-.72.28-1.47.47-2.25.58l-.13.02v5.59c0 .67-.55 1.22-1.22 1.22h-.01z"/><path fill="#C98B00" d="M25.46 1.3c.59 0 1.07.48 1.07 1.07v5.09l.26.03c.89.12 1.73.35 2.5.67l.24.1.13-.23 2.42-4.19a1.074 1.074 0 0 1 1.47-.38c.25.14.42.37.5.65.07.27.04.56-.11.81L31.5 9.15l-.13.22.2.16c.66.53 1.25 1.15 1.76 1.85l.16.22.23-.13L38.02 9c.16-.09.35-.14.53-.14a1.073 1.073 0 0 1 .54 2l-4.34 2.51-.22.13.09.24c.34.91.55 1.88.61 2.86l.02.28h4.88c.59 0 1.07.48 1.07 1.08 0 .59-.48 1.07-1.07 1.07h-5.04l-.05.24a9.67 9.67 0 0 1-.87 2.41l-.13.25.25.14 4.36 2.52c.51.3.69.95.39 1.47a1.074 1.074 0 0 1-1.46.39L33 23.8l-.21-.12-.16.17c-.39.41-.82.8-1.28 1.14l-.21.16.13.23 2.7 4.67c.14.25.18.54.11.81-.07.28-.25.51-.51.66a1.074 1.074 0 0 1-1.46-.39l-2.72-4.71-.13-.22-.24.09c-.71.27-1.45.47-2.21.57l-.26.03v5.72c0 .59-.48 1.07-1.08 1.07-.59 0-1.07-.48-1.07-1.07V26.9l-.26-.04c-.76-.1-1.5-.3-2.21-.57l-.24-.1-.13.22-2.73 4.72a1.074 1.074 0 0 1-1.47.38c-.51-.3-.69-.95-.39-1.46l2.71-4.69.13-.23-.21-.16c-.64-.48-1.2-1.02-1.68-1.6l-.16-.2-.22.13-4.65 2.7c-.16.09-.35.14-.53.14-.38 0-.74-.2-.93-.55-.3-.51-.12-1.17.39-1.46l4.58-2.64.23-.13-.11-.25c-.26-.59-.46-1.21-.6-1.84l-.05-.24h-6c-.59 0-1.07-.48-1.07-1.08 0-.59.48-1.07 1.07-1.07h5.84l.02-.28c.05-.79.18-1.56.39-2.26l.07-.23-.21-.12-4.62-2.67c-.51-.3-.69-.95-.39-1.47a1.074 1.074 0 0 1 1.46-.39l4.41 2.55.25.14.16-.24c.57-.9 1.28-1.68 2.1-2.34l.2-.16-.13-.22-2.45-4.25a1.073 1.073 0 0 1 .93-1.61c.38 0 .74.2.93.53l2.43 4.21.13.23.25-.1c.77-.33 1.61-.56 2.49-.68l.26-.04V2.37c0-.59.48-1.07 1.07-1.07zm0-.3h-.01c-.76 0-1.37.61-1.37 1.37v4.84c-.9.12-1.76.36-2.57.71l-2.43-4.21c-.25-.44-.71-.68-1.19-.68-.23 0-.47.06-.68.18h-.01c-.66.38-.88 1.22-.5 1.87l2.45 4.25c-.84.68-1.57 1.5-2.16 2.41L12.58 9.2a1.379 1.379 0 0 0-1.87.5l-.01.01c-.38.65-.15 1.49.5 1.87l4.62 2.67c-.23.74-.36 1.52-.41 2.33H9.87c-.76 0-1.37.61-1.37 1.37v.01c0 .76.61 1.37 1.37 1.37h5.76c.14.66.35 1.29.62 1.9l-4.58 2.64c-.65.38-.88 1.22-.5 1.87l.01.01c.25.44.71.69 1.19.69.23 0 .47-.06.68-.18l4.64-2.68c.51.62 1.09 1.17 1.73 1.65l-2.71 4.69c-.38.65-.15 1.49.5 1.87h.01c.22.12.45.18.68.18.47 0 .93-.25 1.19-.68l2.73-4.72c.72.28 1.48.48 2.27.59v5.47c0 .76.61 1.37 1.37 1.37h.01c.76 0 1.37-.61 1.37-1.37v-5.46c.79-.11 1.56-.3 2.28-.58l2.72 4.71c.25.44.71.68 1.19.68.23 0 .47-.06.68-.18h.01c.65-.38.88-1.22.5-1.87l-2.69-4.67c.47-.35.91-.75 1.31-1.18l4.58 2.65c.22.12.45.18.68.18.47 0 .93-.25 1.19-.69l.01-.01c.38-.66.15-1.49-.5-1.87l-4.36-2.52c.4-.77.71-1.61.9-2.48h4.8c.76 0 1.37-.61 1.37-1.37v-.01c0-.76-.61-1.37-1.37-1.37h-4.6c-.06-1.03-.28-2.02-.63-2.95l4.34-2.51c.65-.38.88-1.22.5-1.87l-.01-.01c-.25-.44-.71-.68-1.19-.68-.23 0-.47.06-.68.18l-4.28 2.47a9.928 9.928 0 0 0-1.82-1.9l2.44-4.23c.38-.65.15-1.49-.5-1.87h-.01c-.22-.12-.45-.18-.68-.18-.47 0-.93.25-1.19.68L29.41 7.9c-.81-.34-1.68-.57-2.58-.7V2.37c0-.76-.61-1.37-1.37-1.37"/></svg>