<svg xmlns="http://www.w3.org/2000/svg" viewBox="0 0 50 35"><path fill="#E6E6E6" d="M6.25 27.44c-3.18-1.09-5.1-3.33-5.1-6 0-3.25 2.63-5.99 5.74-5.99h.2l.11-.17c-.11-.42-.16-.78-.16-1.13 0-2.53 2.06-4.59 4.59-4.59.39 0 .79.06 1.26.2l.15.04.03-.16c.57-2.61 2.93-4.5 5.6-4.5 3.12 0 5.64 2.45 5.72 5.58l.28.49.07.11.12-.05c.63-.27 1.3-.4 1.98-.4 2.8 0 5.09 2.28 5.09 5.09l-.01.26.22-.05c.87-.48 1.79-.72 2.72-.72 3.17 0 5.74 2.56 5.74 5.7 0 3.29-2.76 6.29-5.79 6.29H6.25z"/><path fill="#595959" d="M18.67 5.3c3.04 0 5.49 2.39 5.57 5.44v.08l.04.07.26.41.14.22.24-.1c.61-.26 1.26-.39 1.92-.39 2.72 0 4.94 2.21 4.93 4.93l-.01.05v.02l-.02.52.46-.25c.85-.46 1.74-.7 2.65-.7 3.08 0 5.59 2.49 5.59 5.55 0 3.21-2.69 6.14-5.64 6.14H6.3c-3.13-1.08-5-3.26-5-5.85 0-3.16 2.55-5.84 5.62-5.83h.01c.04.01.08.01.11.01l.4.01-.1-.38c-.1-.41-.15-.75-.15-1.09 0-2.45 1.99-4.44 4.44-4.44.37 0 .76.06 1.21.19l.31.09.07-.31c.56-2.55 2.85-4.39 5.45-4.39m0-.3c-2.81 0-5.16 1.98-5.74 4.62-.41-.12-.84-.2-1.3-.2-2.62 0-4.74 2.12-4.74 4.74 0 .4.07.79.16 1.17-.05 0-.11-.02-.16-.02-3.25 0-5.89 2.88-5.89 6.14 0 3.03 2.3 5.15 5.25 6.15h28.56c3.25 0 5.94-3.18 5.94-6.44s-2.64-5.85-5.89-5.85c-1.02 0-1.96.28-2.79.73 0-.03.01-.05.01-.08a5.23 5.23 0 0 0-5.24-5.23c-.73 0-1.41.15-2.04.41l-.26-.41C24.45 7.55 21.87 5 18.67 5"/><path fill="#FFF" d="m27.19 20.86-1.76 2.79c-.11.17-.35.17-.45.01l-1.78-2.78a.597.597 0 0 0-.82-.17l-1.35.86c-.27.18-.35.53-.17.82l1.57 2.44c.11.18-.02.42-.22.42l-2.82.01a.6.6 0 0 0-.59.6l.01 1.6c0 .33.27.59.6.59l2.82-.02c.21 0 .35.24.23.42l-1.53 2.45c-.17.28-.1.65.18.81l1.35.85c.28.17.65.09.83-.19l1.76-2.79c.11-.17.35-.17.45-.01l1.78 2.76c.18.27.55.35.82.17l1.32-.86c.27-.18.35-.53.17-.82l-1.57-2.44c-.11-.18.02-.42.22-.42l2.82-.02c.32-.01.59-.27.59-.6l-.01-1.57a.593.593 0 0 0-.6-.59l-2.82.02c-.21 0-.35-.24-.23-.42l1.53-2.45c.18-.28.09-.64-.19-.81l-1.35-.84a.57.57 0 0 0-.79.18"/><path fill="#595959" d="M22.75 32.82c-.14 0-.28-.03-.4-.11L21 31.86a.699.699 0 0 1-.33-.48c-.04-.2-.01-.4.1-.58l1.54-2.45c.03-.04.01-.08.01-.1-.01-.01-.03-.05-.09-.05l-2.82.02c-.19 0-.4-.07-.55-.22a.741.741 0 0 1-.23-.54l-.01-1.6c0-.2.07-.39.22-.54.14-.14.33-.23.54-.23l2.83-.01c.05 0 .07-.03.08-.05.01-.01.03-.06 0-.1l-1.57-2.44a.769.769 0 0 1 .22-1.06l1.35-.86c.34-.23.82-.13 1.06.22l1.79 2.79c.02.04.06.04.08.04.02 0 .06-.01.08-.05l1.76-2.79c.1-.17.26-.29.45-.34.2-.05.42-.01.59.1l1.35.83c.36.23.47.71.24 1.06l-1.54 2.45c-.03.04-.01.08 0 .1.01.01.03.05.09.05l2.82-.02h.02c.41 0 .74.34.76.76l.01 1.57c.01.2-.07.38-.21.53-.14.15-.34.24-.55.24l-2.83.02c-.05 0-.07.03-.08.05-.01.01-.03.06 0 .1l1.57 2.45c.23.36.13.82-.22 1.06l-1.32.86c-.16.11-.36.15-.56.11a.786.786 0 0 1-.5-.33l-1.79-2.76c-.02-.04-.06-.04-.08-.04-.02 0-.06.01-.08.05l-1.76 2.8c-.17.22-.43.34-.69.34m-.53-4.97c.17 0 .31.09.39.24.08.15.07.31-.02.45l-1.53 2.45c-.06.09-.08.21-.06.32.02.11.08.2.17.25l1.35.85c.2.12.46.06.59-.14l1.76-2.79a.44.44 0 0 1 .38-.21c.15 0 .29.08.37.2l1.78 2.76c.06.09.17.16.28.18.1.02.21 0 .3-.06l1.32-.86c.19-.13.25-.38.12-.58l-1.57-2.44a.43.43 0 0 1-.01-.45c.08-.14.22-.23.38-.23l2.82-.02a.43.43 0 0 0 .41-.42l-.01-1.57c0-.11-.05-.22-.13-.3a.395.395 0 0 0-.28-.12h-.01l-2.83.02c-.17 0-.32-.09-.39-.24a.43.43 0 0 1 .02-.45l1.54-2.44c.12-.2.06-.45-.14-.58l-1.35-.84c-.1-.06-.21-.08-.32-.06-.1.02-.18.08-.23.17v.01l-1.76 2.79a.44.44 0 0 1-.38.21.45.45 0 0 1-.37-.2l-1.78-2.78a.42.42 0 0 0-.58-.12l-1.35.86c-.19.13-.25.38-.12.58l1.57 2.44c.09.14.09.31.01.45s-.22.23-.38.23l-2.82.01c-.23.01-.42.19-.41.42l.01 1.61c0 .11.04.22.12.29.08.08.19.13.3.12l2.84-.01z"/><path fill="#FFF" d="m12.28 22.15-1.47 2.33c-.09.14-.29.14-.38.01l-1.49-2.32a.507.507 0 0 0-.69-.14l-1.12.71a.51.51 0 0 0-.13.69l1.3 2.04c.09.15-.01.35-.19.35H5.76c-.27.01-.5.23-.49.5l.01 1.34c0 .27.23.5.5.49l2.35-.01c.17 0 .29.2.19.35l-1.28 2.04c-.14.23-.08.54.15.68l1.13.71c.23.14.54.07.69-.16l1.47-2.33c.09-.14.29-.14.38-.01l1.49 2.3c.15.22.46.29.69.14l1.1-.71c.22-.15.29-.44.14-.69l-1.3-2.04c-.09-.15.01-.35.19-.35l2.35-.01c.27-.01.5-.23.49-.5L16 26.25c-.01-.27-.23-.5-.5-.49l-2.35.01c-.17 0-.29-.2-.19-.35l1.28-2.04c.15-.23.07-.53-.16-.68l-1.13-.7c-.23-.14-.55-.08-.67.15"/><path fill="#595959" d="M8.58 32.11c-.11 0-.23-.03-.34-.09l-1.13-.71a.646.646 0 0 1-.28-.4c-.03-.16 0-.33.08-.48l1.28-2.04c.02-.04.01-.07 0-.08-.01-.01-.03-.04-.07-.04l-2.35.01c-.15 0-.33-.06-.46-.18s-.19-.29-.19-.45l-.01-1.33c0-.17.06-.33.18-.45s.28-.19.45-.19H8.1c.04 0 .06-.03.06-.04.01-.01.02-.05 0-.08L6.88 23.5a.65.65 0 0 1 .18-.89l1.12-.72c.28-.19.68-.11.88.18l1.49 2.32c.02.03.05.04.06.04.02 0 .05-.01.07-.04l1.46-2.32a.58.58 0 0 1 .38-.28c.17-.04.35-.01.49.09l1.12.7c.3.19.39.59.2.88l-1.28 2.04c-.02.04-.01.07 0 .08.01.01.03.04.07.04l2.35-.01h.02c.34 0 .62.28.63.63v1.31c0 .16-.06.32-.17.44-.12.13-.28.2-.46.2l-2.35.01c-.04 0-.06.03-.07.04 0 .01-.02.05 0 .08l1.31 2.04c.19.3.11.68-.18.89l-1.1.72a.59.59 0 0 1-.47.09.638.638 0 0 1-.42-.28l-1.49-2.3c-.02-.03-.05-.03-.06-.03-.02 0-.05 0-.07.04l-1.47 2.33c-.11.19-.33.29-.54.29m-.45-4.14c.14 0 .26.08.33.2.06.12.06.26-.01.38l-1.28 2.04a.364.364 0 0 0 .1.48l1.13.71c.16.1.38.05.49-.11l1.46-2.33c.07-.11.19-.18.31-.18.13 0 .24.06.31.17l1.48 2.3c.05.08.14.13.23.15.09.02.18 0 .25-.05l1.1-.72c.16-.11.21-.32.1-.49l-1.3-2.04a.37.37 0 0 1-.01-.38c.06-.12.19-.19.32-.19l2.35-.01a.34.34 0 0 0 .34-.34l-.01-1.31c0-.09-.04-.18-.11-.25a.345.345 0 0 0-.23-.1h-.01l-2.35.01c-.14 0-.26-.08-.33-.2a.37.37 0 0 1 .01-.38l1.28-2.04c.1-.16.05-.37-.11-.48l-1.12-.7c-.08-.05-.17-.07-.26-.05-.08.02-.15.07-.19.14v.01l-1.47 2.33c-.07.11-.18.18-.31.18s-.24-.06-.31-.17l-1.48-2.32c-.11-.16-.33-.21-.48-.1l-1.12.72c-.16.11-.2.31-.1.49l1.3 2.03c.07.11.08.26.01.38-.06.12-.19.19-.32.19H5.77c-.19.01-.35.16-.34.35l.01 1.34c0 .09.03.18.1.24.07.07.15.1.25.1h2.34z"/></svg>