<svg xmlns="http://www.w3.org/2000/svg" viewBox="0 0 50 35"><path fill="#FFEB00" d="M30.27 26.85c-.54-.12-.99-.26-1.41-.42l-.12-.05-.27.47h-2.83l.96-1.67-.11-.08c-.65-.49-1.22-1.04-1.7-1.62l-.08-.1-4.75 2.74c-.18.11-.4.16-.61.16-.44 0-.84-.23-1.06-.61-.34-.59-.14-1.34.44-1.68l4.69-2.71-.05-.12c-.26-.6-.47-1.23-.61-1.87l-.03-.12h-5.88a1.225 1.225 0 0 1 0-2.45h5.7l.01-.14c.05-.8.18-1.58.4-2.29l.03-.11-4.73-2.73c-.58-.34-.78-1.08-.45-1.67.22-.39.63-.62 1.06-.62.21 0 .42.06.61.16l4.54 2.62.08-.12c.58-.91 1.3-1.71 2.13-2.38l.1-.08L23.81 5c-.16-.28-.21-.61-.12-.93.08-.31.29-.58.57-.74a1.218 1.218 0 0 1 1.68.44l2.5 4.32.12-.05c.78-.34 1.64-.57 2.53-.69l.13-.02V2.37a1.225 1.225 0 0 1 2.45 0v4.97l.13.02c.9.12 1.75.35 2.54.69l.12.05 2.49-4.31c.22-.38.62-.61 1.06-.61.21 0 .42.06.61.16.59.34.79 1.09.46 1.67l-2.51 4.34.1.08c.67.53 1.27 1.16 1.79 1.87l.08.11 4.4-2.54c.18-.11.4-.16.61-.16.44 0 .84.23 1.06.61.34.59.14 1.34-.44 1.68l-4.45 2.57.05.12c.35.93.56 1.9.62 2.91l.01.14h4.74a1.225 1.225 0 0 1 0 2.45h-4.92l-.03.12c-.18.84-.48 1.67-.88 2.44l-.07.13 4.48 2.59c.58.34.78 1.08.45 1.67-.22.39-.63.62-1.06.62-.21 0-.42-.06-.61-.16l-4.69-2.7-.08.09c-.39.42-.83.81-1.3 1.16l-.1.08.03.06-.34.24-1.71 1.12-.13-.22-.12.05c-.4.16-.84.28-1.38.41h-4.41z"/><path fill="#C98B00" d="M32.46 1.3c.59 0 1.07.48 1.07 1.07v5.09l.26.03c.89.12 1.73.35 2.5.67l.24.1.13-.23 2.42-4.19a1.074 1.074 0 0 1 1.47-.38c.25.14.42.37.5.65.07.28.04.57-.11.81L38.5 9.15l-.13.22.2.16c.66.53 1.25 1.15 1.77 1.85l.16.22.23-.13L45.02 9c.16-.09.35-.14.53-.14a1.073 1.073 0 0 1 .54 2l-4.34 2.51-.22.13.09.24c.34.91.55 1.88.61 2.86l.02.28h4.88c.59 0 1.07.48 1.07 1.08 0 .59-.48 1.07-1.07 1.07h-5.04l-.05.24a9.67 9.67 0 0 1-.87 2.41l-.13.25.25.14 4.36 2.52c.51.3.69.95.39 1.47a1.074 1.074 0 0 1-1.46.39L40 23.8l-.21-.12-.16.17c-.39.41-.82.8-1.28 1.14l-.21.16.03.06-.22.15-1.58 1.03-.11-.2-.24.09c-.39.15-.82.28-1.35.4H30.3c-.54-.12-.99-.25-1.38-.41l-.24-.09-.13.22-.16.28H25.9l.76-1.33.13-.23-.21-.16c-.64-.49-1.2-1.02-1.68-1.6l-.16-.2-.22.13L19.89 26c-.16.09-.35.14-.53.14-.38 0-.74-.2-.93-.55-.3-.51-.12-1.17.39-1.46l4.58-2.64.23-.13-.11-.25c-.26-.59-.46-1.21-.6-1.84l-.05-.24h-6c-.59 0-1.07-.48-1.07-1.08 0-.59.48-1.07 1.07-1.07h5.84l.02-.28c.05-.79.18-1.56.39-2.26l.07-.23-.21-.12-4.62-2.67c-.51-.3-.69-.95-.39-1.47a1.074 1.074 0 0 1 1.46-.39l4.41 2.55.25.14.16-.24c.57-.9 1.28-1.68 2.1-2.34l.2-.16-.13-.22-2.45-4.25a1.073 1.073 0 0 1 .93-1.61c.38 0 .74.2.93.53l2.43 4.21.13.23.24-.1c.77-.33 1.61-.56 2.49-.68l.26-.03V2.37c0-.59.48-1.07 1.07-1.07h.01zm0-.3h-.01c-.76 0-1.37.61-1.37 1.37v4.84c-.9.12-1.76.36-2.57.71l-2.43-4.21c-.25-.44-.71-.68-1.19-.68-.23 0-.47.06-.68.18h-.01c-.66.38-.88 1.22-.5 1.87l2.45 4.25c-.84.68-1.57 1.5-2.16 2.41L19.58 9.2a1.379 1.379 0 0 0-1.87.5l-.01.01c-.38.65-.15 1.49.5 1.87l4.62 2.67c-.23.74-.36 1.52-.41 2.33h-5.56c-.76 0-1.37.61-1.37 1.37v.01c0 .76.61 1.37 1.37 1.37h5.76c.14.66.35 1.29.62 1.9l-4.58 2.64c-.65.38-.88 1.22-.5 1.87l.01.01c.25.44.71.69 1.19.69.23 0 .47-.06.68-.18l4.64-2.68c.51.62 1.09 1.17 1.73 1.65L25.39 27h3.17l.25-.43c.47.18.96.32 1.46.43h4.42c.49-.11.96-.24 1.42-.42l.14.25 1.85-1.21.45-.32-.04-.06c.47-.35.91-.75 1.32-1.18l4.58 2.65c.22.12.45.18.68.18.47 0 .93-.25 1.19-.69l.01-.01c.38-.65.15-1.49-.5-1.87l-4.36-2.52c.4-.77.71-1.61.9-2.48h4.8c.76 0 1.37-.61 1.37-1.37v-.01c0-.76-.61-1.37-1.37-1.37h-4.6c-.06-1.03-.28-2.02-.63-2.95l4.34-2.51c.65-.38.88-1.22.5-1.87l-.01-.01c-.25-.44-.71-.68-1.19-.68-.23 0-.47.06-.68.18l-4.28 2.47a9.928 9.928 0 0 0-1.82-1.9l2.44-4.23c.38-.65.15-1.49-.5-1.87h-.01c-.22-.12-.45-.18-.68-.18-.47 0-.93.25-1.19.68l-2.41 4.2c-.81-.34-1.68-.57-2.58-.7V2.37c0-.76-.61-1.37-1.37-1.37"/><path fill="#E6E6E6" d="M6.25 27.44c-3.18-1.09-5.1-3.33-5.1-6 0-3.25 2.63-5.99 5.74-5.99h.2l.11-.17c-.11-.42-.16-.78-.16-1.13 0-2.53 2.06-4.59 4.59-4.59.39 0 .79.06 1.26.2l.15.04.03-.16c.57-2.61 2.93-4.5 5.6-4.5 3.12 0 5.64 2.45 5.72 5.58l.28.49.07.11.12-.05c.63-.27 1.3-.4 1.98-.4 2.8 0 5.09 2.28 5.09 5.09l-.01.26.22-.05c.87-.48 1.79-.72 2.72-.72 3.17 0 5.74 2.56 5.74 5.7 0 3.29-2.76 6.29-5.79 6.29H6.25z"/><path fill="#595959" d="M18.67 5.3c3.04 0 5.49 2.39 5.57 5.44v.08l.04.07.26.41.14.22.24-.1c.61-.26 1.26-.39 1.92-.39 2.72 0 4.94 2.21 4.93 4.93l-.01.05v.02l-.02.52.46-.25c.85-.46 1.74-.7 2.65-.7 3.08 0 5.59 2.49 5.59 5.55 0 3.21-2.69 6.14-5.64 6.14H6.3c-3.13-1.08-5-3.26-5-5.85 0-3.16 2.55-5.84 5.62-5.83h.01c.04.01.08.01.11.01l.4.01-.1-.38c-.1-.41-.15-.75-.15-1.09 0-2.45 1.99-4.44 4.44-4.44.37 0 .76.06 1.21.19l.31.09.07-.31c.56-2.55 2.85-4.39 5.45-4.39m0-.3c-2.81 0-5.16 1.98-5.74 4.62-.41-.12-.84-.2-1.3-.2-2.62 0-4.74 2.12-4.74 4.74 0 .4.07.79.16 1.17-.05 0-.11-.02-.16-.02-3.25 0-5.89 2.88-5.89 6.14 0 3.03 2.3 5.15 5.25 6.15h28.56c3.25 0 5.94-3.18 5.94-6.44s-2.64-5.85-5.89-5.85c-1.02 0-1.96.28-2.79.73 0-.03.01-.05.01-.08a5.23 5.23 0 0 0-5.24-5.23c-.73 0-1.41.15-2.04.41l-.26-.41C24.45 7.55 21.87 5 18.67 5"/><path fill="#FFF" d="m27.19 20.86-1.76 2.79c-.11.17-.35.17-.45.01l-1.78-2.78a.597.597 0 0 0-.82-.17l-1.35.86c-.27.18-.35.53-.17.82l1.57 2.44c.11.18-.02.42-.22.42l-2.82.01a.6.6 0 0 0-.59.6l.01 1.6c0 .33.27.59.6.59l2.82-.02c.21 0 .35.24.23.42l-1.53 2.45c-.17.28-.1.65.18.81l1.35.85c.28.17.65.09.83-.19l1.76-2.79c.11-.17.35-.17.45-.01l1.78 2.76c.18.27.55.35.82.17l1.32-.86c.27-.18.35-.53.17-.82l-1.57-2.44c-.11-.18.02-.42.22-.42l2.82-.02c.32-.01.59-.27.59-.6l-.01-1.57a.593.593 0 0 0-.6-.59l-2.82.02c-.21 0-.35-.24-.23-.42l1.53-2.45c.18-.28.09-.64-.19-.81l-1.35-.84a.57.57 0 0 0-.79.18"/><path fill="#595959" d="M22.75 32.82c-.14 0-.28-.03-.4-.11L21 31.86a.699.699 0 0 1-.33-.48c-.04-.2-.01-.4.1-.58l1.54-2.45c.03-.04.01-.08.01-.1-.01-.01-.03-.05-.09-.05l-2.82.02c-.19 0-.4-.07-.55-.22a.741.741 0 0 1-.23-.54l-.01-1.6c0-.2.07-.39.22-.54.14-.14.33-.23.54-.23l2.83-.01c.05 0 .07-.03.08-.05.01-.01.03-.06 0-.1l-1.57-2.44a.769.769 0 0 1 .22-1.06l1.35-.86c.34-.23.82-.13 1.06.22l1.79 2.79c.02.04.06.04.08.04.02 0 .06-.01.08-.05l1.76-2.79c.1-.17.26-.29.45-.34.2-.05.42-.01.59.1l1.35.83c.36.23.47.71.24 1.06l-1.54 2.45c-.03.04-.01.08 0 .1.01.01.03.05.09.05l2.82-.02h.02c.41 0 .74.34.76.76l.01 1.57c.01.2-.07.38-.21.53-.14.15-.34.24-.55.24l-2.83.02c-.05 0-.07.03-.08.05-.01.01-.03.06 0 .1l1.57 2.45c.23.36.13.82-.22 1.06l-1.32.86c-.16.11-.36.15-.56.11a.786.786 0 0 1-.5-.33l-1.79-2.76c-.02-.04-.06-.04-.08-.04-.02 0-.06.01-.08.05l-1.76 2.8c-.17.22-.43.34-.69.34m-.53-4.97c.17 0 .31.09.39.24.08.15.07.31-.02.45l-1.53 2.45c-.06.09-.08.21-.06.32.02.11.08.2.17.25l1.35.85c.2.12.46.06.59-.14l1.76-2.79a.44.44 0 0 1 .38-.21c.15 0 .29.08.37.2l1.78 2.76c.06.09.17.16.28.18.1.02.21 0 .3-.06l1.32-.86c.19-.13.25-.38.12-.58l-1.57-2.44a.43.43 0 0 1-.01-.45c.08-.14.22-.23.38-.23l2.82-.02a.43.43 0 0 0 .41-.42l-.01-1.57c0-.11-.05-.22-.13-.3a.395.395 0 0 0-.28-.12h-.01l-2.83.02c-.17 0-.32-.09-.39-.24a.43.43 0 0 1 .02-.45l1.54-2.44c.12-.2.06-.45-.14-.58l-1.35-.84c-.1-.06-.21-.08-.32-.06-.1.02-.18.08-.23.17v.01l-1.76 2.79a.44.44 0 0 1-.38.21.45.45 0 0 1-.37-.2l-1.78-2.78a.42.42 0 0 0-.58-.12l-1.35.86c-.19.13-.25.38-.12.58l1.57 2.44c.09.14.09.31.01.45s-.22.23-.38.23l-2.82.01c-.23.01-.42.19-.41.42l.01 1.61c0 .11.04.22.12.29.08.08.19.13.3.12l2.84-.01z"/><path fill="#FFF" d="m12.28 22.15-1.47 2.33c-.09.14-.29.14-.38.01l-1.49-2.32a.507.507 0 0 0-.69-.14l-1.12.71a.51.51 0 0 0-.13.69l1.3 2.04c.09.15-.01.35-.19.35H5.76c-.27.01-.5.23-.49.5l.01 1.34c0 .27.23.5.5.49l2.35-.01c.17 0 .29.2.19.35l-1.28 2.04c-.14.23-.08.54.15.68l1.13.71c.23.14.54.07.69-.16l1.47-2.33c.09-.14.29-.14.38-.01l1.49 2.3c.15.22.46.29.69.14l1.1-.71c.22-.15.29-.44.14-.69l-1.3-2.04c-.09-.15.01-.35.19-.35l2.35-.01c.27-.01.5-.23.49-.5L16 26.25c-.01-.27-.23-.5-.5-.49l-2.35.01c-.17 0-.29-.2-.19-.35l1.28-2.04c.15-.23.07-.53-.16-.68l-1.13-.7c-.23-.14-.55-.08-.67.15"/><path fill="#595959" d="M8.58 32.11c-.11 0-.23-.03-.34-.09l-1.13-.71a.646.646 0 0 1-.28-.4c-.03-.16 0-.33.08-.48l1.28-2.04c.02-.04.01-.07 0-.08-.01-.01-.03-.04-.07-.04l-2.35.01c-.15 0-.33-.06-.46-.18s-.19-.29-.19-.45l-.01-1.33c0-.17.06-.33.18-.45s.28-.19.45-.19H8.1c.04 0 .06-.03.06-.04.01-.01.02-.05 0-.08L6.88 23.5a.65.65 0 0 1 .18-.89l1.12-.72c.28-.19.68-.11.88.18l1.49 2.32c.02.03.05.04.06.04.02 0 .05-.01.07-.04l1.46-2.32a.58.58 0 0 1 .38-.28c.17-.04.35-.01.49.09l1.12.7c.3.19.39.59.2.88l-1.28 2.04c-.02.04-.01.07 0 .08.01.01.03.04.07.04l2.35-.01h.02c.34 0 .62.28.63.63v1.31c0 .16-.06.32-.17.44-.12.13-.28.2-.46.2l-2.35.01c-.04 0-.06.03-.07.04 0 .01-.02.05 0 .08l1.31 2.04c.19.3.11.68-.18.89l-1.1.72a.59.59 0 0 1-.47.09.638.638 0 0 1-.42-.28l-1.49-2.3c-.02-.03-.05-.03-.06-.03-.02 0-.05 0-.07.04l-1.47 2.33c-.11.19-.33.29-.54.29m-.45-4.14c.14 0 .26.08.33.2.06.12.06.26-.01.38l-1.28 2.04a.364.364 0 0 0 .1.48l1.13.71c.16.1.38.05.49-.11l1.46-2.33c.07-.11.19-.18.31-.18.13 0 .24.06.31.17l1.48 2.3c.05.08.14.13.23.15.09.02.18 0 .25-.05l1.1-.72c.16-.11.21-.32.1-.49l-1.3-2.04a.37.37 0 0 1-.01-.38c.06-.12.19-.19.32-.19l2.35-.01a.34.34 0 0 0 .34-.34l-.01-1.31c0-.09-.04-.18-.11-.25a.345.345 0 0 0-.23-.1h-.01l-2.35.01c-.14 0-.26-.08-.33-.2a.37.37 0 0 1 .01-.38l1.28-2.04c.1-.16.05-.37-.11-.48l-1.12-.7c-.08-.05-.17-.07-.26-.05-.08.02-.15.07-.19.14v.01l-1.47 2.33c-.07.11-.18.18-.31.18s-.24-.06-.31-.17l-1.48-2.32c-.11-.16-.33-.21-.48-.1l-1.12.72c-.16.11-.2.31-.1.49l1.3 2.03c.07.11.08.26.01.38-.06.12-.19.19-.32.19H5.77c-.19.01-.35.16-.34.35l.01 1.34c0 .09.03.18.1.24.07.07.15.1.25.1h2.34z"/></svg>