<svg xmlns="http://www.w3.org/2000/svg" viewBox="0 0 50 35"><path fill="#FFEB00" d="M30.27 26.85c-.54-.12-.99-.26-1.41-.42l-.12-.05-.27.47h-2.83l.96-1.67-.11-.08c-.65-.49-1.22-1.04-1.7-1.62l-.08-.1-4.75 2.74c-.18.11-.4.16-.61.16-.44 0-.84-.23-1.06-.61-.34-.59-.14-1.34.44-1.68l4.69-2.71-.05-.12c-.26-.6-.47-1.23-.61-1.87l-.03-.12h-5.88a1.225 1.225 0 0 1 0-2.45h5.7l.01-.14c.05-.8.18-1.58.4-2.29l.03-.11-4.73-2.73c-.58-.34-.78-1.08-.45-1.67.22-.39.63-.62 1.06-.62.21 0 .42.06.61.16l4.54 2.62.08-.12c.58-.91 1.3-1.71 2.13-2.38l.1-.08L23.81 5c-.16-.28-.21-.61-.12-.93.08-.31.29-.58.57-.74a1.218 1.218 0 0 1 1.68.44l2.5 4.32.12-.05c.78-.34 1.64-.57 2.53-.69l.13-.02V2.37a1.225 1.225 0 0 1 2.45 0v4.97l.13.02c.9.12 1.75.35 2.54.69l.12.05 2.49-4.31c.22-.38.62-.61 1.06-.61.21 0 .42.06.61.16.59.34.79 1.09.46 1.67l-2.51 4.34.1.08c.67.53 1.27 1.16 1.79 1.87l.08.11 4.4-2.54c.18-.11.4-.16.61-.16.44 0 .84.23 1.06.61.34.59.14 1.34-.44 1.68l-4.45 2.57.05.12c.35.93.56 1.9.62 2.91l.01.14h4.74a1.225 1.225 0 0 1 0 2.45h-4.92l-.03.12c-.18.84-.48 1.67-.88 2.44l-.07.13 4.48 2.59c.58.34.78 1.08.45 1.67-.22.39-.63.62-1.06.62-.21 0-.42-.06-.61-.16l-4.69-2.7-.08.09c-.39.42-.83.81-1.3 1.16l-.1.08.03.06-.34.24-1.71 1.12-.13-.22-.12.05c-.4.16-.84.28-1.38.41h-4.41z"/><path fill="#C98B00" d="M32.46 1.3c.59 0 1.07.48 1.07 1.07v5.09l.26.03c.89.12 1.73.35 2.5.67l.24.1.13-.23 2.42-4.19a1.074 1.074 0 0 1 1.47-.38c.25.14.42.37.5.65.07.28.04.57-.11.81L38.5 9.15l-.13.22.2.16c.66.53 1.25 1.15 1.77 1.85l.16.22.23-.13L45.02 9c.16-.09.35-.14.53-.14a1.073 1.073 0 0 1 .54 2l-4.34 2.51-.22.13.09.24c.34.91.55 1.88.61 2.86l.02.28h4.88c.59 0 1.07.48 1.07 1.08 0 .59-.48 1.07-1.07 1.07h-5.04l-.05.24a9.67 9.67 0 0 1-.87 2.41l-.13.25.25.14 4.36 2.52c.51.3.69.95.39 1.47a1.074 1.074 0 0 1-1.46.39L40 23.8l-.21-.12-.16.17c-.39.41-.82.8-1.28 1.14l-.21.16.03.06-.22.15-1.58 1.03-.11-.2-.24.09c-.39.15-.82.28-1.35.4H30.3c-.54-.12-.99-.25-1.38-.41l-.24-.09-.13.22-.16.28h-2.48l.76-1.33.13-.23-.21-.16c-.64-.49-1.2-1.02-1.68-1.6l-.16-.2-.22.13L19.89 26c-.16.09-.35.14-.53.14-.38 0-.74-.2-.93-.55-.3-.51-.12-1.17.39-1.46l4.58-2.64.23-.13-.11-.25c-.26-.59-.46-1.21-.6-1.84l-.05-.24h-6c-.59 0-1.07-.48-1.07-1.08 0-.59.48-1.07 1.07-1.07h5.84l.02-.28c.05-.79.18-1.56.39-2.26l.07-.23-.21-.12-4.62-2.67c-.51-.3-.69-.95-.39-1.47a1.074 1.074 0 0 1 1.46-.39l4.41 2.55.25.14.16-.24c.57-.9 1.28-1.68 2.1-2.34l.2-.16-.13-.22-2.45-4.25a1.073 1.073 0 0 1 .93-1.61c.38 0 .74.2.93.53l2.43 4.21.13.23.24-.1c.77-.33 1.61-.56 2.49-.68l.26-.03V2.37c0-.59.48-1.07 1.07-1.07h.01zm0-.3h-.01c-.76 0-1.37.61-1.37 1.37v4.84c-.9.12-1.76.36-2.57.71l-2.43-4.21c-.25-.44-.71-.68-1.19-.68-.23 0-.47.06-.68.18h-.01c-.66.38-.88 1.22-.5 1.87l2.45 4.25c-.84.68-1.57 1.5-2.16 2.41L19.58 9.2a1.379 1.379 0 0 0-1.87.5l-.01.01c-.38.65-.15 1.49.5 1.87l4.62 2.67c-.23.74-.36 1.52-.41 2.33h-5.56c-.76 0-1.37.61-1.37 1.37v.01c0 .76.61 1.37 1.37 1.37h5.76c.14.66.35 1.29.62 1.9l-4.58 2.64c-.65.38-.88 1.22-.5 1.87l.01.01c.25.44.71.69 1.19.69.23 0 .47-.06.68-.18l4.64-2.68c.51.62 1.09 1.17 1.73 1.65L25.39 27h3.17l.25-.43c.47.18.96.32 1.46.43h4.42c.49-.11.96-.24 1.42-.42l.14.25 1.85-1.21.45-.32-.04-.06c.47-.35.91-.75 1.32-1.18l4.58 2.65c.22.12.45.18.68.18.47 0 .93-.25 1.19-.69l.01-.01c.38-.65.15-1.49-.5-1.87l-4.36-2.52c.4-.77.71-1.61.9-2.48h4.8c.76 0 1.37-.61 1.37-1.37v-.01c0-.76-.61-1.37-1.37-1.37h-4.6c-.06-1.03-.28-2.02-.63-2.95l4.34-2.51c.65-.38.88-1.22.5-1.87l-.01-.01c-.25-.44-.71-.68-1.19-.68-.23 0-.47.06-.68.18l-4.28 2.47a9.928 9.928 0 0 0-1.82-1.9l2.44-4.23c.38-.65.15-1.49-.5-1.87h-.01c-.22-.12-.45-.18-.68-.18-.47 0-.93.25-1.19.68l-2.41 4.2c-.81-.34-1.68-.57-2.58-.7V2.37c0-.76-.61-1.37-1.37-1.37"/><path fill="#E6E6E6" d="M6.25 27.44c-3.18-1.09-5.1-3.33-5.1-6 0-3.25 2.63-5.99 5.74-5.99h.2l.11-.17c-.11-.42-.16-.78-.16-1.13 0-2.53 2.06-4.59 4.59-4.59.39 0 .79.06 1.26.2l.15.04.03-.16c.57-2.61 2.93-4.5 5.6-4.5 3.12 0 5.64 2.45 5.72 5.58l.28.49.07.11.12-.05c.63-.27 1.3-.4 1.98-.4 2.8 0 5.09 2.28 5.09 5.09l-.01.26.22-.05c.87-.48 1.79-.72 2.72-.72 3.17 0 5.74 2.56 5.74 5.7 0 3.29-2.76 6.29-5.79 6.29H6.25z"/><path fill="#595959" d="M18.67 5.3c3.04 0 5.49 2.39 5.57 5.44v.08l.04.07.26.41.14.22.24-.1c.61-.26 1.26-.39 1.92-.39 2.72 0 4.94 2.21 4.93 4.93l-.01.05v.02l-.02.52.46-.25c.85-.46 1.74-.7 2.65-.7 3.08 0 5.59 2.49 5.59 5.55 0 3.21-2.69 6.14-5.64 6.14H6.3c-3.13-1.08-5-3.26-5-5.85 0-3.16 2.55-5.84 5.62-5.83h.01c.04.01.08.01.11.01l.4.01-.1-.38c-.1-.41-.15-.75-.15-1.09 0-2.45 1.99-4.44 4.44-4.44.37 0 .76.06 1.21.19l.31.09.07-.31c.56-2.55 2.85-4.39 5.45-4.39m0-.3c-2.81 0-5.16 1.98-5.74 4.62-.41-.12-.84-.2-1.3-.2-2.62 0-4.74 2.12-4.74 4.74 0 .4.07.79.16 1.17-.05 0-.11-.02-.16-.02-3.25 0-5.89 2.88-5.89 6.14 0 3.03 2.3 5.15 5.25 6.15h28.56c3.25 0 5.94-3.18 5.94-6.44s-2.64-5.85-5.89-5.85c-1.02 0-1.96.28-2.79.73 0-.03.01-.05.01-.08a5.23 5.23 0 0 0-5.24-5.23c-.73 0-1.41.15-2.04.41l-.26-.41C24.45 7.55 21.87 5 18.67 5"/><path fill="#FFF" d="m19.72 21.39-1.77 2.79c-.11.17-.35.17-.45.01l-1.78-2.79c-.18-.27-.55-.36-.82-.17l-1.35.85c-.27.18-.36.53-.17.82l1.56 2.45c.11.18-.02.42-.23.42h-2.82c-.33.01-.6.27-.59.6v1.6c0 .32.27.6.6.59l2.82-.01c.21 0 .35.24.23.42l-1.54 2.44c-.17.28-.1.65.17.82l1.35.85c.28.17.65.09.83-.19l1.77-2.79c.11-.17.35-.17.45-.01l1.78 2.77c.18.27.55.36.82.17l1.32-.85c.27-.18.36-.53.17-.82l-1.56-2.45c-.11-.18.02-.42.23-.42l2.82-.01c.33-.01.6-.27.59-.6v-1.57a.593.593 0 0 0-.6-.59l-2.82.01c-.21 0-.35-.24-.23-.42l1.54-2.44a.59.59 0 0 0-.19-.82l-1.35-.84a.552.552 0 0 0-.78.18"/><path fill="#595959" d="M15.25 33.34c-.14 0-.28-.04-.4-.11l-1.35-.86a.699.699 0 0 1-.33-.48c-.04-.2-.01-.4.1-.57l1.54-2.45c.03-.04.02-.08.01-.1-.01-.01-.03-.05-.09-.05l-2.82.01c-.19-.01-.4-.08-.55-.22s-.23-.34-.23-.54v-1.6c0-.2.07-.39.22-.54.14-.14.34-.23.54-.23h2.83c.05 0 .07-.03.08-.05.01-.01.03-.05 0-.1L13.23 23a.769.769 0 0 1 .22-1.06l1.35-.86c.34-.23.82-.13 1.06.22l1.78 2.79c.02.04.06.04.08.04.02 0 .06-.01.08-.05l1.77-2.79c.1-.17.26-.29.45-.34.2-.05.42-.01.59.11l1.34.84c.36.23.47.71.24 1.06l-1.54 2.44c-.03.04-.02.08-.01.1.01.01.03.05.09.05l2.82-.01h.02c.4 0 .74.34.75.76v1.57c.01.2-.07.38-.21.53-.14.15-.34.24-.55.24l-2.83.01c-.05 0-.07.03-.08.05-.01.01-.03.06 0 .1l1.56 2.45c.23.37.13.82-.22 1.06l-1.33.86c-.16.11-.36.15-.56.11a.786.786 0 0 1-.5-.33l-1.78-2.77c-.02-.04-.06-.04-.08-.04-.02 0-.06.01-.08.05l-1.77 2.79a.73.73 0 0 1-.64.36m-.52-4.97c.17 0 .31.09.39.24.08.15.07.31-.02.45l-1.54 2.44c-.06.09-.08.21-.05.32.02.11.08.2.17.25l1.35.86c.2.12.46.06.59-.13l1.77-2.79a.44.44 0 0 1 .38-.21c.15 0 .29.08.37.21l1.78 2.76c.06.09.16.16.28.18.1.02.21 0 .3-.06l1.33-.86c.2-.13.25-.38.12-.58L20.37 29a.447.447 0 0 1-.01-.46c.08-.14.22-.23.38-.23l2.82-.01c.11 0 .22-.05.3-.14.08-.08.11-.18.11-.28v-1.57c0-.11-.05-.22-.13-.3a.395.395 0 0 0-.28-.12h-.01l-2.83.01c-.17 0-.32-.09-.39-.24a.43.43 0 0 1 .02-.45l1.54-2.44a.42.42 0 0 0-.13-.58l-1.35-.84c-.09-.06-.21-.09-.32-.06-.1.02-.18.08-.23.17l-.01.01-1.77 2.79a.44.44 0 0 1-.38.21c-.15 0-.29-.08-.37-.21l-1.78-2.79a.42.42 0 0 0-.58-.12l-1.35.86c-.19.13-.25.38-.12.58l1.56 2.45c.09.14.09.31.01.46-.08.14-.22.23-.38.23h-2.82c-.23.01-.42.19-.41.42v1.61c0 .11.04.22.12.29.08.08.19.13.3.12h2.85z"/></svg>