<svg xmlns="http://www.w3.org/2000/svg" viewBox="0 0 50 35">
  <!-- Sonne, etwas nach rechts verschoben -->
  <g transform="translate(10,0)">
    <path fill="#FFEB00" d="M25.45 33.85c-.67 0-1.22-.55-1.22-1.22v-5.6l-.13-.02a9.97 9.97 0 0 1-2.24-.58l-.12-.05-2.79 4.83c-.22.38-.62.61-1.06.61-.21 0-.42-.06-.61-.16a1.23 1.23 0 0 1-.46-1.67l2.77-4.81-.09-.08c-.65-.49-1.22-1.04-1.7-1.62l-.08-.1-4.75 2.74a1.23 1.23 0 0 1-1.23-2.13l4.69-2.71-.05-.12c-.26-.6-.47-1.23-.61-1.87l-.03-.12H9.87a1.225 1.225 0 0 1 0-2.45h5.7l.01-.14c.05-.81.18-1.58.4-2.3l.03-.11-4.73-2.73c-.58-.34-.78-1.08-.45-1.67.22-.39.63-.62 1.06-.62.21 0 .42.06.61.16l4.54 2.62.08-.12c.58-.91 1.3-1.71 2.13-2.38l.1-.08-2.52-4.36c-.34-.58-.14-1.33.45-1.67a1.218 1.218 0 0 1 1.68.44l2.49 4.32.12-.05c.78-.34 1.64-.57 2.53-.69l.13-.02V2.37a1.225 1.225 0 0 1 2.45 0v4.97l.13.02c.9.12 1.76.35 2.54.69l.12.05 2.49-4.31c.22-.38.62-.61 1.06-.61.21 0 .42.06.61.16.29.17.49.43.58.75.08.31.04.64-.12.93l-2.51 4.34.1.08c.67.53 1.27 1.16 1.79 1.87l.08.11 4.4-2.54c.18-.11.4-.16.61-.16.44 0 .84.23 1.06.61.34.59.14 1.34-.44 1.68l-4.45 2.57.04.12c.35.93.56 1.9.62 2.91l.01.14h4.74a1.225 1.225 0 0 1 0 2.45h-4.92l-.03.12c-.18.84-.48 1.67-.88 2.44l-.07.13 4.49 2.59c.58.34.78 1.08.45 1.67-.22.39-.63.62-1.06.62-.21 0-.42-.06-.61-.16l-4.69-2.71-.08.09c-.39.42-.83.81-1.3 1.16l-.11.08 2.76 4.78c.16.28.21.61.12.93a1.247 1.247 0 0 1-1.19.91c-.44 0-.84-.23-1.06-.61l-2.78-4.82-.12.05c-.72.28-1.47.47-2.25.58l-.13.02v5.59c0 .67-.55 1.22-1.22 1.22h-.01z"/>
    <path fill="#C98B00" d="M25.46 1.3c.59 0 1.07.48 1.07 1.07v5.09l.26.03c.89.12 1.73.35 2.5.67l.24.1.13-.23 2.42-4.19a1.074 1.074 0 0 1 1.47-.38c.25.14.42.37.5.65.07.27.04.56-.11.81L31.5 9.15l-.13.22.2.16c.66.53 1.25 1.15 1.76 1.85l.16.22.23-.13L38.02 9c.16-.09.35-.14.53-.14a1.073 1.073 0 0 1 .54 2l-4.34 2.51-.22.13.09.24c.34.91.55 1.88.61 2.86l.02.28h4.88c.59 0 1.07.48 1.07 1.08 0 .59-.48 1.07-1.07 1.07h-5.04l-.05.24a9.67 9.67 0 0 1-.87 2.41l-.13.25.25.14 4.36 2.52c.51.3.69.95.39 1.47a1.074 1.074 0 0 1-1.46.39L33 23.8l-.21-.12-.16.17c-.39.41-.82.8-1.28 1.14l-.21.16.13.23 2.7 4.67c.14.25.18.54.11.81-.07.28-.25.51-.51.66a1.074 1.074 0 0 1-1.46-.39l-2.72-4.71-.13-.22-.24.09c-.71.27-1.45.47-2.21.57l-.26.03v5.72c0 .59-.48 1.07-1.08 1.07-.59 0-1.07-.48-1.07-1.07V26.9l-.26-.04c-.76-.1-1.5-.3-2.21-.57l-.24-.1-.13.22-2.73 4.72a1.074 1.074 0 0 1-1.47.38c-.51-.3-.69-.95-.39-1.46l2.71-4.69.13-.23-.21-.16c-.64-.48-1.2-1.02-1.68-1.6l-.16-.2-.22.13-4.65 2.7c-.16.09-.35.14-.53.14-.38 0-.74-.2-.93-.55-.3-.51-.12-1.17.39-1.46l4.58-2.64.23-.13-.11-.25c-.26-.59-.46-1.21-.6-1.84l-.05-.24h-6c-.59 0-1.07-.48-1.07-1.08 0-.59.48-1.07 1.07-1.07h5.84l.02-.28c.05-.79.18-1.56.39-2.26l.07-.23-.21-.12-4.62-2.67c-.51-.3-.69-.95-.39-1.47a1.074 1.074 0 0 1 1.46-.39l4.41 2.55.25.14.16-.24c.57-.9 1.28-1.68 2.1-2.34l.2-.16-.13-.22-2.45-4.25a1.073 1.073 0 0 1 .93-1.61c.38 0 .74.2.93.53l2.43 4.21.13.23.25-.1c.77-.33 1.61-.56 2.49-.68l.26-.04V2.37c0-.59.48-1.07 1.07-1.07zm0-.3h-.01c-.76 0-1.37.61-1.37 1.37v4.84c-.9.12-1.76.36-2.57.71l-2.43-4.21c-.25-.44-.71-.68-1.19-.68-.23 0-.47.06-.68.18h-.01c-.66.38-.88 1.22-.5 1.87l2.45 4.25c-.84.68-1.57 1.5-2.16 2.41L12.58 9.2a1.379 1.379 0 0 0-1.87.5l-.01.01c-.38.65-.15 1.49.5 1.87l4.62 2.67c-.23.74-.36 1.52-.41 2.33H9.87c-.76 0-1.37.61-1.37 1.37v.01c0 .76.61 1.37 1.37 1.37h5.76c.14.66.35 1.29.62 1.9l-4.58 2.64c-.65.38-.88 1.22-.5 1.87l.01.01c.25.44.71.69 1.19.69.23 0 .47-.06.68-.18l4.64-2.68c.51.62 1.09 1.17 1.73 1.65l-2.71 4.69c-.38.65-.15 1.49.5 1.87h.01c.22.12.45.18.68.18.47 0 .93-.25 1.19-.68l2.73-4.72c.72.28 1.48.48 2.27.59v5.47c0 .76.61 1.37 1.37 1.37h.01c.76 0 1.37-.61 1.37-1.37v-5.46c.79-.11 1.56-.3 2.28-.58l2.72 4.71c.25.44.71.68 1.19.68.23 0 .47-.06.68-.18h.01c.65-.38.88-1.22.5-1.87l-2.69-4.67c.47-.35.91-.75 1.31-1.18l4.58 2.65c.22.12.45.18.68.18.47 0 .93-.25 1.19-.69l.01-.01c.38-.66.15-1.49-.5-1.87l-4.36-2.52c.4-.77.71-1.61.9-2.48h4.8c.76 0 1.37-.61 1.37-1.37v-.01c0-.76-.61-1.37-1.37-1.37h-4.6c-.06-1.03-.28-2.02-.63-2.95l4.34-2.51c.65-.38.88-1.22.5-1.87l-.01-.01c-.25-.44-.71-.68-1.19-.68-.23 0-.47.06-.68.18l-4.28 2.47a9.928 9.928 0 0 0-1.82-1.9l2.44-4.23c.38-.65.15-1.49-.5-1.87h-.01c-.22-.12-.45-.18-.68-.18-.47 0-.93.25-1.19.68L29.41 7.9c-.81-.34-1.68-.57-2.58-.7V2.37c0-.76-.61-1.37-1.37-1.37"/>
  </g>

  <!-- Wolke mit Schneeregen darüber -->
  <g>
    <path fill="#E6E6E6" d="M6.25 27.44c-3.18-1.09-5.1-3.33-5.1-6 0-3.25 2.63-5.99 5.74-5.99h.2l.11-.17c-.11-.42-.16-.78-.16-1.13 0-2.53 2.06-4.59 4.59-4.59.39 0 .79.06 1.26.2l.15.04.03-.16c.57-2.61 2.93-4.5 5.6-4.5 3.12 0 5.64 2.45 5.72 5.58l.28.49.07.11.12-.05c.63-.27 1.3-.4 1.98-.4 2.8 0 5.09 2.28 5.09 5.09l-.01.26.22-.05c.87-.48 1.79-.72 2.72-.72 3.17 0 5.74 2.56 5.74 5.7 0 3.29-2.76 6.29-5.79 6.29H6.25z"/>
    <path fill="#595959" d="M18.67 5.3c3.04 0 5.49 2.39 5.57 5.44v.08l.04.07.26.41.14.22.24-.1c.61-.26 1.26-.39 1.92-.39 2.72 0 4.94 2.21 4.93 4.93l-.01.05v.02l-.02.52.46-.25c.85-.46 1.74-.7 2.65-.7 3.08 0 5.59 2.49 5.59 5.55 0 3.21-2.69 6.14-5.64 6.14H6.3c-3.13-1.08-5-3.26-5-5.85 0-3.16 2.55-5.84 5.62-5.83h.01c.04.01.08.01.11.01l.4.01-.1-.38c-.1-.41-.15-.75-.15-1.09 0-2.45 1.99-4.44 4.44-4.44.37 0 .76.06 1.21.19l.31.09.07-.31c.56-2.55 2.85-4.39 5.45-4.39m0-.3c-2.81 0-5.16 1.98-5.74 4.62-.41-.12-.84-.2-1.3-.2-2.62 0-4.74 2.12-4.74 4.74 0 .4.07.79.16 1.17-.05 0-.11-.02-.16-.02-3.25 0-5.89 2.88-5.89 6.14 0 3.03 2.3 5.15 5.25 6.15h28.56c3.25 0 5.94-3.18 5.94-6.44s-2.64-5.85-5.89-5.85c-1.02 0-1.96.28-2.79.73 0-.03.01-.05.01-.08a5.23 5.23 0 0 0-5.24-5.23c-.73 0-1.41.15-2.04.41l-.26-.41C24.45 7.55 21.87 5 18.67 5"/>
    <path fill="#9CF" d="M24.05 32.82c-.19 0-.39-.01-.59-.03-1.48-.13-2.76-1.37-3.12-3.01-.37-1.69.34-3.24 1.91-4.13 2.88-1.37 4.09-4.18 4.6-6.29.07-.28.3-.38.47-.38.18 0 .41.1.46.39.61 3.49 1.29 7.98 1.06 9.51-.44 2.9-2.77 3.94-4.79 3.94"/>
    <path fill="#595959" d="M27.32 19.11c.14 0 .29.07.33.28.86 4.92 1.24 8.28 1.06 9.46-.43 2.82-2.69 3.82-4.67 3.82-.19 0-.38-.01-.58-.03-1.42-.13-2.65-1.32-3-2.91-.36-1.63.33-3.12 1.83-3.98 2.32-1.11 3.94-3.31 4.69-6.38.05-.19.21-.26.34-.26m0-.27a.61.61 0 0 0-.6.48c-.55 2.27-1.79 4.89-4.54 6.2-3.71 2.13-1.91 7.11 1.26 7.4.2.02.4.03.6.03 2.4 0 4.51-1.32 4.93-4.05.24-1.56-.46-6.11-1.06-9.55a.58.58 0 0 0-.59-.51"/>
    <path fill="#FFF" d="m15.17 21.09-1.76 2.79c-.11.17-.35.17-.45.01l-1.78-2.78a.595.595 0 0 0-.82-.17L9 21.79c-.27.18-.35.53-.17.82l1.57 2.44c.11.18-.02.42-.23.42l-2.82.01a.6.6 0 0 0-.59.6l.01 1.6c0 .32.27.59.6.59l2.82-.02c.21 0 .35.24.23.42l-1.53 2.45c-.17.28-.1.65.18.82l1.35.85c.28.17.65.09.83-.19L13 29.8c.11-.17.35-.17.45-.01l1.78 2.76c.18.27.55.35.82.17l1.32-.86c.27-.18.35-.53.17-.82l-1.57-2.45c-.11-.18.02-.42.23-.42l2.82-.02c.32-.01.59-.27.59-.6V26a.593.593 0 0 0-.6-.59l-2.82.02c-.21 0-.35-.24-.23-.42l1.53-2.45a.59.59 0 0 0-.19-.82l-1.35-.84a.55.55 0 0 0-.78.19"/>
    <path fill="#595959" d="M10.72 33.05c-.14 0-.28-.03-.4-.11l-1.35-.85c-.35-.21-.46-.68-.23-1.05l1.54-2.45c.03-.04.01-.08.01-.1-.01-.01-.03-.05-.09-.05l-2.82.02c-.21.02-.4-.07-.55-.22a.741.741 0 0 1-.23-.54l-.01-1.6c-.01-.19.07-.38.21-.53.14-.15.34-.24.55-.24l2.83-.01c.05 0 .07-.03.08-.05.01-.01.03-.06 0-.1l-1.57-2.45a.77.77 0 0 1 .22-1.06l1.35-.86c.34-.23.82-.14 1.06.22l1.79 2.79c.02.04.06.04.08.04.02 0 .06-.01.08-.05l1.75-2.8c.1-.17.26-.29.45-.34.2-.05.42-.01.59.1l1.35.84c.36.23.47.7.24 1.06l-1.53 2.45c-.03.04-.01.08 0 .1.01.01.03.05.09.05l2.82-.02c.41-.01.76.33.78.76l.01 1.57c.01.19-.07.38-.21.53-.14.15-.34.24-.55.24l-2.83.02c-.05 0-.07.03-.08.05-.01.01-.03.06 0 .1l1.57 2.45c.23.36.13.82-.22 1.06l-1.32.86c-.17.11-.37.15-.58.11a.791.791 0 0 1-.49-.33l-1.79-2.76c-.02-.04-.06-.04-.08-.04-.02 0-.06.01-.08.05l-1.76 2.8c-.16.21-.42.34-.68.34m-.53-4.97c.17 0 .31.09.39.24.08.15.07.31-.02.45l-1.53 2.45c-.12.2-.07.46.12.57l1.35.85c.2.12.46.06.59-.14l1.76-2.79a.44.44 0 0 1 .38-.21c.15 0 .29.08.37.2l1.78 2.76a.424.424 0 0 0 .58.12l1.32-.86c.19-.13.25-.38.12-.58l-1.57-2.44a.447.447 0 0 1-.01-.46c.08-.14.22-.23.38-.23l2.82-.02c.11 0 .22-.05.3-.14.08-.08.11-.18.11-.28l.01-1.57a.418.418 0 0 0-.41-.41h-.01l-2.83.02c-.17 0-.32-.09-.39-.24a.43.43 0 0 1 .02-.45l1.53-2.45c.12-.19.07-.45-.14-.57l-1.35-.84a.408.408 0 0 0-.32-.06c-.1.02-.18.09-.23.17l-.01.01-1.76 2.79a.44.44 0 0 1-.38.21c-.15 0-.29-.08-.37-.21l-1.78-2.78a.42.42 0 0 0-.58-.12l-1.33.87c-.19.13-.24.38-.12.58l1.57 2.44c.09.14.09.31.01.46-.08.14-.22.23-.38.23h-.01l-2.82.01a.43.43 0 0 0-.41.42l.01 1.61c0 .11.04.22.12.29a.4.4 0 0 0 .29.12h.01l2.82-.02z"/>
  </g>
</svg>
